<?xml version="1.0" standalone="no"?>
<!DOCTYPE svg PUBLIC "-//W3C//DTD SVG 20010904//EN"
 "http://www.w3.org/TR/2001/REC-SVG-20010904/DTD/svg10.dtd">
<svg version="1.0" xmlns="http://www.w3.org/2000/svg"
 width="64.000000pt" height="64.000000pt" viewBox="0 0 64.000000 64.000000"
 preserveAspectRatio="xMidYMid meet">

<g transform="translate(0.000000,64.000000) scale(0.100000,-0.100000)"
fill="#000000" stroke="none">
<path d="M123 579 c-9 -9 13 -40 90 -125 l102 -113 107 112 c116 121 121 137
45 137 -37 0 -47 -6 -95 -56 l-53 -57 -52 57 c-47 50 -57 56 -93 56 -22 0 -45
-5 -51 -11z"/>
<path d="M217 188 c-114 -122 -119 -138 -44 -138 37 0 46 6 94 57 l53 57 53
-57 c47 -51 57 -57 93 -57 75 0 72 14 -33 129 -53 58 -100 110 -104 114 -3 4
-54 -43 -112 -105z"/>
</g>
</svg>
